<?xml version="1.0" standalone="no"?>
<!DOCTYPE svg PUBLIC "-//W3C//DTD SVG 20010904//EN"
 "http://www.w3.org/TR/2001/REC-SVG-20010904/DTD/svg10.dtd">
<svg version="1.0" xmlns="http://www.w3.org/2000/svg"
 width="693.000000pt" height="693.000000pt" viewBox="0 0 693.000000 693.000000"
 preserveAspectRatio="xMidYMid meet">
<metadata>
Created by potrace 1.11, written by Peter Selinger 2001-2013
</metadata>
<g transform="translate(0.000000,693.000000) scale(0.100000,-0.100000)"
fill="#000000" stroke="none">
<path d="M3395 5169 c-204 -21 -424 -88 -615 -185 -413 -212 -724 -574 -868
-1011 -33 -99 -51 -172 -78 -328 -3 -18 -15 -23 -83 -32 -43 -7 -131 -24 -195
-39 l-116 -28 0 -30 c0 -17 -3 -70 -7 -118 -5 -78 -4 -88 11 -88 12 0 15 -4 9
-14 -4 -8 -6 -61 -3 -118 l5 -103 -42 -63 c-24 -35 -43 -71 -43 -80 0 -8 20
-34 45 -57 l44 -42 128 -6 c70 -4 177 -7 236 -7 104 0 109 -1 115 -22 11 -45
124 -263 174 -337 104 -155 252 -314 396 -424 710 -546 1721 -470 2338 175
133 140 215 255 298 418 40 80 75 151 77 158 6 17 56 21 338 21 l244 1 -7 63
c-3 34 -6 158 -6 275 -1 132 -5 212 -11 212 -5 0 -3 10 5 23 8 12 13 31 11 42
-2 11 -4 47 -5 80 0 55 -4 64 -39 104 -45 52 -32 50 -273 38 l-158 -8 0 33
c-1 51 -36 199 -76 316 -264 774 -1035 1266 -1849 1181z"/>
</g>
</svg>
